P2
20 20
255
0
241
242
248
251
0
243
243
241
242
253
255
253
243
242
252
254
254
254
242
225
237
0
229
217
214
230
226
224
244
248
247
235
230
238
0
240
242
247
236
247
235
226
233
217
225
226
232
225
227
226
221
217
0
216
217
220
229
225
229
247
235
242
220
222
234
231
231
247
238
236
240
250
241
240
249
236
224
221
239
228
252
250
217
206
17
30
9
27
231
243
253
254
9
25
49
40
227
249
242
222
248
233
232
30
27
34
32
12
33
34
27
9
19
19
15
28
24
244
237
234
218
244
30
27
32
25
31
9
30
48
23
32
20
7
150
14
18
49
253
232
245
222
24
31
31
21
36
15
31
33
200
27
10
7
1
4
28
38
255
229
249
225
36
35
34
23
36
38
36
56
50
32
32
32
24
16
30
32
255
235
231
233
34
31
39
40
44
38
52
39
30
34
38
33
44
16
18
30
255
255
224
218
8
20
40
53
42
213
49
92
192
30
10
12
7
7
28
35
255
228
207
215
2
19
56
146
44
39
41
50
50
31
22
6
5
33
48
13
254
218
218
217
239
28
26
36
30
34
46
32
36
54
55
11
22
50
12
222
242
228
215
233
241
236
29
17
24
10
24
5
8
22
29
33
38
27
234
226
241
217
233
235
242
253
253
7
28
29
31
18
13
28
47
48
29
232
235
252
254
231
240
235
242
254
252
232
17
19
28
31
84
49
46
39
217
225
241
254
255
251
231
230
252
254
241
229
227
22
21
30
180
41
33
231
235
239
242
242
254
0
231
236
247
0
229
232
233
245
33
34
10
8
228
244
237
236
252
0
246
243
237
220
218
217
224
225
238
222
241
18
2
240
215
0
238
252
254
248
243
254
254
253
253
252
248
241
232
231
243
239
238
239
217
241
252
249
242
237
236
