P2
3 3
255
192
0
205
64
120
42
92
255
140
