P2
4 4
255
192
0
205
64
120
42
92
255
140
0
6
74
210
200
174
110
