P2
# CREATOR: GIMP PNM Filter Version 1.1
27 20
255
169
202
158
130
118
94
82
107
167
216
245
248
251
253
252
251
251
251
251
251
251
251
247
174
149
178
240
197
244
175
145
163
170
155
148
127
189
249
251
251
207
181
255
251
251
251
247
246
248
223
192
211
226
240
194
238
236
231
184
140
205
140
133
161
249
250
243
109
62
175
255
251
252
211
217
237
218
246
251
252
252
150
176
202
213
196
123
134
152
131
161
228
220
122
93
43
98
196
240
222
180
211
231
235
248
251
251
251
146
137
152
179
121
69
72
122
119
124
166
159
146
96
47
82
131
200
175
167
247
249
251
251
251
251
251
213
102
132
132
93
62
87
83
83
122
191
129
125
114
76
73
74
162
180
158
190
237
254
248
254
254
252
90
74
99
108
73
86
73
63
77
78
139
144
103
66
84
79
57
152
185
161
138
175
181
150
195
203
229
113
60
121
75
59
73
65
51
73
128
126
181
51
54
130
70
65
97
111
125
100
69
62
70
150
161
154
138
33
107
59
90
81
55
50
62
98
169
148
83
66
100
51
59
35
78
79
69
63
73
73
55
73
117
96
19
108
59
67
129
49
51
48
180
160
150
91
86
97
50
71
66
65
86
85
60
78
88
78
75
69
92
74
107
50
101
79
77
56
75
194
156
140
52
100
94
41
92
58
55
85
135
135
102
155
111
69
73
82
91
95
66
122
93
71
54
91
165
116
151
101
98
72
91
119
85
101
163
133
139
126
160
120
157
121
76
61
76
65
100
90
62
51
150
113
145
142
97
89
150
161
145
124
128
156
139
108
118
167
125
133
166
92
141
90
97
101
99
27
81
188
128
105
116
70
84
176
144
122
150
99
116
106
106
109
119
224
213
152
86
89
105
124
83
85
50
139
81
119
104
142
120
75
114
129
166
119
88
160
159
141
110
114
199
253
239
60
90
117
138
40
82
95
241
103
127
120
134
60
84
176
115
183
167
219
255
247
250
243
182
177
154
133
107
108
138
75
83
102
144
150
116
113
137
105
85
160
129
152
193
198
169
208
205
176
151
149
144
156
146
74
107
141
131
176
248
255
155
122
107
128
116
160
138
176
197
175
156
168
188
156
134
157
154
155
122
166
184
192
175
194
179
183
255
252
212
170
158
189
196
214
188
155
186
198
198
217
205
170
192
154
167
166
165
225
188
149
157
153
182
226
235
194
177
174
178
183
205
176
194
181
174
161
217
114
109
131
147
160
154
150
