P2
# CREATOR: GIMP PNM Filter Version 1.1
54 40
255
177
179
189
203
168
133
106
110
94
109
87
86
78
83
95
136
141
202
198
217
243
237
242
247
249
251
251
251
251
251
251
251
251
251
251
251
251
251
251
251
251
251
251
252
250
243
211
174
174
153
153
192
236
248
166
162
216
192
176
156
150
151
128
150
127
96
93
86
87
118
128
188
207
238
246
249
252
251
251
251
251
253
251
250
251
251
251
251
251
251
251
251
252
251
250
251
252
248
251
231
183
142
132
153
179
199
220
246
184
161
231
232
182
139
154
133
155
184
187
143
136
122
135
141
124
141
180
215
244
249
251
251
251
251
251
214
202
252
251
251
251
251
251
251
251
251
251
251
252
252
250
252
243
213
201
161
159
200
208
208
223
242
227
225
239
245
221
177
176
135
146
159
167
161
163
194
165
137
127
134
150
215
247
249
251
251
251
249
219
131
112
160
251
252
251
251
251
251
251
251
249
230
229
244
242
243
234
208
201
214
234
243
244
244
245
248
216
232
238
245
224
225
224
194
169
159
158
141
190
218
168
125
133
134
132
212
247
249
250
251
251
249
108
124
63
73
207
253
251
251
251
251
251
250
242
194
197
226
237
233
226
228
241
242
246
251
252
251
252
252
167
164
205
247
246
242
246
237
218
185
137
144
178
198
159
127
117
146
149
169
239
245
245
249
241
187
140
92
81
73
92
143
254
251
251
251
250
250
231
185
211
238
239
232
207
222
241
247
250
252
251
251
251
251
156
158
175
217
221
235
234
222
199
189
157
127
152
163
178
140
118
152
148
190
220
244
226
224
125
155
142
71
60
50
110
90
167
250
251
246
244
225
205
180
210
225
229
224
221
231
243
249
250
251
251
251
251
251
151
140
152
161
167
183
198
196
209
164
108
107
101
122
144
134
120
133
141
163
207
223
224
184
95
155
112
57
48
39
104
88
116
243
238
218
218
196
181
168
199
217
236
237
243
244
248
249
251
251
251
251
251
251
144
135
140
149
141
170
186
180
168
82
76
74
82
83
139
143
107
118
117
130
149
213
196
169
142
142
151
49
52
41
103
77
82
226
222
176
175
196
163
170
241
247
247
246
248
251
251
251
251
251
251
251
251
251
158
157
134
131
153
156
168
169
143
103
82
59
68
69
80
111
127
123
127
135
156
155
168
108
138
154
131
59
58
54
81
61
68
155
194
199
166
170
165
189
226
247
252
250
251
251
251
251
251
251
251
251
251
251
218
186
163
97
183
154
140
143
87
100
74
70
64
78
75
94
96
112
133
142
177
189
180
84
161
133
165
86
51
109
88
68
57
130
142
190
169
176
145
179
209
220
249
250
252
252
250
252
252
251
251
251
251
251
185
208
101
71
71
107
119
123
107
84
64
56
113
81
74
88
70
69
109
102
179
184
118
150
121
79
88
86
35
109
82
61
58
70
167
145
178
189
148
181
171
163
197
242
250
248
241
235
250
251
250
251
250
250
111
84
81
45
62
139
138
103
81
77
79
71
85
85
58
70
72
72
74
74
144
181
136
128
111
53
56
84
24
122
112
59
59
62
168
156
203
196
177
181
142
136
162
236
235
185
177
172
186
241
215
198
211
244
85
103
74
98
54
143
116
70
70
69
73
108
63
63
54
79
101
61
70
111
117
104
142
169
178
61
65
58
109
90
80
64
59
67
89
182
185
135
141
139
142
147
147
141
156
136
132
132
165
186
201
210
213
240
108
91
65
78
66
174
125
30
59
63
97
69
73
61
53
51
96
65
87
104
80
97
139
160
77
62
60
49
183
96
74
68
67
67
59
180
123
135
141
140
153
119
78
74
71
65
66
104
151
155
180
193
155
219
117
125
63
48
61
163
124
37
35
88
76
57
63
59
59
52
60
74
135
154
136
209
204
185
59
47
58
74
121
84
71
67
59
64
53
89
101
97
105
105
71
61
72
71
67
69
75
61
136
132
133
125
130
125
124
136
59
35
87
114
91
37
78
103
113
61
68
63
47
63
66
69
58
143
168
173
143
215
56
58
52
87
157
58
62
54
57
67
43
42
83
83
79
84
78
72
63
65
75
78
71
66
59
62
84
100
113
112
132
130
54
18
93
112
67
63
84
80
73
77
42
45
35
59
55
60
71
160
202
118
138
88
154
65
44
93
86
88
50
48
53
55
38
43
64
76
85
73
64
64
64
62
75
64
72
83
62
67
66
58
92
138
127
83
45
8
127
81
59
64
52
99
83
131
57
41
41
69
58
78
129
221
172
135
157
63
99
75
27
124
99
91
54
51
44
99
55
58
69
66
74
101
84
79
54
55
77
98
107
83
68
77
76
73
62
87
81
93
44
29
135
58
50
59
40
92
121
143
85
31
38
55
52
29
142
188
173
171
190
167
94
91
59
134
104
88
60
40
40
95
71
81
60
70
71
89
98
82
68
75
64
71
89
73
79
88
78
68
66
73
100
98
60
60
133
87
43
54
39
151
103
80
79
52
56
56
56
78
204
157
178
129
138
122
77
66
86
93
82
78
59
34
71
121
69
63
66
63
54
88
122
142
81
87
84
66
97
130
90
95
64
82
72
77
93
71
59
123
111
78
57
63
98
103
92
67
113
53
54
58
82
100
197
182
142
171
157
144
51
48
82
131
135
74
62
19
37
106
46
74
63
51
94
117
126
129
161
196
123
156
203
157
130
125
96
56
70
76
84
87
44
138
147
43
68
74
81
161
95
79
84
47
55
52
58
94
187
181
131
122
128
201
96
54
81
116
85
73
25
55
55
75
66
74
60
182
158
146
149
113
137
159
139
173
183
148
110
125
142
107
86
98
64
82
30
154
125
63
65
57
111
113
119
85
101
51
48
61
45
183
159
116
119
115
114
146
147
104
80
107
78
82
103
185
186
149
109
89
39
129
171
158
115
159
124
141
113
89
107
189
128
135
171
166
137
166
85
77
29
103
67
71
66
64
104
124
105
86
74
54
42
88
31
200
141
123
136
154
128
154
119
73
79
99
88
218
172
136
166
118
123
114
149
124
187
125
130
137
126
133
114
134
115
187
115
103
115
111
140
158
70
69
68
71
95
77
63
80
79
86
79
91
59
60
33
54
177
166
83
131
114
158
128
150
111
93
69
100
73
212
200
141
130
165
138
134
149
85
155
130
131
138
66
115
107
114
123
215
194
135
184
136
131
217
115
81
143
108
84
100
92
90
82
107
101
91
51
32
69
44
220
137
136
115
120
122
125
131
76
78
89
51
180
178
166
134
130
153
181
135
65
145
104
86
109
95
82
97
86
140
115
113
239
253
227
124
69
169
72
104
154
115
84
101
100
106
98
114
120
71
35
28
131
102
230
108
127
123
113
75
114
97
72
87
119
102
164
132
138
133
59
169
173
91
98
103
154
129
100
135
155
85
87
126
141
133
113
246
249
243
200
202
90
64
81
123
123
84
105
128
91
97
118
62
40
49
98
167
122
76
105
112
104
98
163
158
118
110
97
116
97
96
163
96
129
146
127
124
114
96
117
149
142
135
151
71
94
158
129
116
137
186
255
250
235
217
55
130
84
88
134
81
150
96
80
74
91
63
40
85
81
204
94
83
108
142
96
129
116
116
122
105
40
68
108
180
166
100
189
168
123
131
135
59
158
217
200
177
202
150
99
122
136
118
211
250
236
245
246
230
67
77
53
113
124
92
155
137
66
45
95
70
86
103
255
200
115
107
133
111
109
118
155
145
97
59
75
78
161
172
125
120
161
202
187
239
251
224
248
252
251
253
251
245
248
248
216
222
217
191
191
156
158
126
83
34
115
84
117
139
124
101
61
37
104
47
98
108
240
179
101
112
142
111
113
145
101
108
53
66
77
118
175
151
117
127
184
167
84
156
162
202
242
252
255
207
213
255
210
214
152
131
160
142
149
135
112
163
78
107
133
122
134
157
130
50
97
82
75
41
80
88
212
124
101
128
120
93
158
137
76
109
87
85
46
191
169
106
135
136
195
194
146
139
149
170
194
224
187
221
194
179
189
149
147
154
139
145
149
162
143
126
112
113
70
106
120
129
104
52
91
61
155
162
168
255
155
105
111
121
114
133
137
103
142
94
88
94
171
199
120
149
120
224
207
162
224
244
186
190
189
223
208
205
186
154
140
142
143
147
138
161
153
146
156
162
95
67
57
113
131
137
122
106
110
133
254
245
253
253
93
98
133
94
125
63
112
142
110
111
125
162
140
176
129
189
224
164
146
165
176
129
225
183
231
175
181
166
146
109
147
158
146
149
146
164
122
121
169
146
91
70
125
131
140
145
153
158
199
253
227
232
252
251
255
206
144
129
101
146
78
165
115
163
197
140
161
110
162
222
218
165
173
217
173
183
127
152
154
192
164
133
143
160
174
144
166
153
155
150
136
139
175
161
103
143
160
99
152
114
224
218
225
185
206
220
252
251
253
244
182
161
106
148
60
169
189
191
186
191
215
247
201
190
183
147
198
173
170
215
211
225
214
202
169
206
173
159
192
149
146
172
168
162
147
161
162
169
225
253
254
249
206
223
169
145
156
158
160
172
254
252
251
249
251
235
225
196
210
198
189
177
193
197
135
231
197
178
159
155
134
233
190
217
210
140
212
218
217
193
147
200
183
212
140
168
167
164
161
188
171
158
224
246
252
206
176
144
154
170
156
162
166
245
249
245
252
250
237
180
194
193
181
174
183
195
160
203
208
195
227
188
211
173
215
169
202
189
202
177
229
195
114
152
154
102
114
148
165
155
162
161
170
161
164
139
219
208
159
142
145
151
146
154
154
141
147
166
214
195
207
223
198
176
161
162
170
178
174
159
212
168
234
167
105
182
172
210
171
169
168
137
153
123
214
195
152
79
109
83
120
152
115
154
160
153
132
155
153
147
