P2
# CREATOR: GIMP PNM Filter Version 1.1
107 80
255
177
177
172
187
184
171
213
206
158
127
116
122
96
101
111
86
78
85
90
89
79
82
89
77
77
78
82
84
95
131
144
134
155
189
209
197
195
203
208
230
240
233
226
236
236
235
245
248
249
250
251
251
251
251
251
251
251
251
251
251
251
251
251
251
251
251
251
251
251
251
251
251
251
251
251
251
251
251
251
251
251
251
251
251
251
251
252
251
250
249
241
226
200
182
177
173
175
159
144
136
144
167
207
229
241
246
249
173
177
172
189
213
187
178
209
201
179
158
135
112
137
127
106
104
127
133
115
101
87
86
82
81
80
83
84
84
107
125
132
118
151
190
203
200
206
223
240
245
246
248
249
249
249
248
249
249
251
251
251
251
251
251
251
251
251
251
251
251
251
251
251
251
251
251
251
251
251
251
251
251
251
251
251
251
251
251
251
251
251
251
251
251
251
251
250
249
245
239
227
199
173
169
173
164
153
157
167
171
182
208
225
242
247
249
163
169
161
183
213
203
186
190
197
177
165
141
129
160
162
134
122
129
137
133
113
91
89
91
88
84
83
87
84
96
110
123
123
145
180
206
208
208
233
244
246
247
249
251
251
251
250
250
251
251
251
251
251
251
251
251
251
251
251
251
251
251
251
251
251
251
251
251
251
251
251
251
251
251
251
251
251
251
251
251
251
251
251
251
251
251
249
249
248
244
234
215
180
158
153
138
132
136
148
161
186
195
200
214
234
243
250
161
172
148
175
208
228
209
191
167
158
162
143
157
158
153
130
127
149
161
165
161
121
102
118
103
103
94
84
88
110
125
123
125
151
184
204
204
208
237
242
245
247
249
252
252
252
251
251
251
251
251
251
251
250
253
255
251
253
249
250
251
251
251
251
251
251
251
251
251
251
251
251
251
251
251
251
253
252
251
250
249
250
251
252
252
252
247
251
251
234
216
197
167
147
124
116
150
168
168
177
189
199
204
208
226
241
247
182
177
155
169
220
228
224
224
176
151
149
149
152
152
143
148
143
165
177
187
193
152
124
124
129
123
114
100
115
133
136
136
125
130
158
175
193
198
224
245
244
247
249
251
251
251
251
251
251
251
251
251
251
248
237
215
245
243
250
252
251
251
251
251
251
251
251
251
251
251
251
251
251
251
251
251
252
252
250
251
253
253
253
251
251
251
252
250
243
221
202
198
185
163
138
133
159
184
191
198
203
211
215
217
226
236
246
191
185
165
183
232
231
235
236
222
175
140
134
156
154
123
130
150
173
178
191
187
175
167
150
143
147
140
131
149
153
146
137
124
126
124
136
163
173
199
238
244
247
249
251
251
251
251
251
251
251
251
251
251
252
187
134
156
236
250
250
251
251
251
251
251
251
251
251
251
251
251
251
251
251
251
251
251
251
250
249
250
250
250
249
249
249
250
246
235
223
219
217
201
190
169
166
183
203
215
217
213
205
207
218
232
238
246
214
222
207
216
237
238
240
247
239
194
172
167
169
171
140
124
143
160
161
167
166
161
161
173
163
162
178
171
175
170
149
126
123
136
137
134
145
169
202
235
245
247
249
251
251
252
251
251
251
250
250
251
244
185
142
130
117
119
213
253
249
251
250
251
251
251
251
251
251
251
251
251
251
252
251
251
249
245
242
240
241
244
246
246
246
246
244
241
233
224
205
195
192
197
202
214
223
233
240
236
236
237
235
238
242
242
248
223
238
240
234
235
242
247
243
231
198
183
192
183
177
148
135
141
151
156
163
174
162
156
156
162
176
206
200
156
155
134
122
127
139
130
137
151
166
217
239
247
248
249
251
251
253
251
251
251
249
248
255
188
103
125
107
108
86
113
220
253
250
253
251
251
251
251
251
251
251
251
251
251
253
251
251
247
229
215
215
219
232
242
239
239
239
242
235
229
214
206
209
216
219
232
240
244
245
247
249
249
249
248
248
248
250
251
220
226
240
241
235
237
245
242
230
205
209
223
210
205
181
158
156
164
159
165
169
161
141
155
180
198
219
213
159
155
128
129
128
136
129
125
137
178
211
239
247
248
249
249
251
251
251
251
251
252
250
255
118
118
126
119
74
98
72
140
244
251
250
251
251
251
251
251
251
251
251
251
251
251
251
249
246
221
198
200
204
215
228
237
236
236
234
226
227
225
225
231
234
235
239
243
248
250
253
251
251
251
251
253
254
254
251
214
202
208
226
237
243
243
248
245
210
223
246
239
235
223
200
182
181
166
150
147
145
141
149
184
198
210
212
184
161
126
127
135
133
142
123
121
156
201
239
247
248
249
249
249
250
251
251
251
249
245
221
111
142
119
80
60
88
79
73
170
243
250
251
251
251
251
251
251
251
251
251
251
250
249
250
231
206
184
189
199
218
234
238
238
238
229
219
226
225
233
243
247
246
246
246
245
248
250
252
252
252
251
250
251
252
251
183
171
176
180
210
240
243
244
242
242
241
241
243
249
232
234
210
198
189
153
137
134
145
146
167
191
201
201
170
147
131
116
118
139
145
141
138
146
175
227
247
245
247
243
245
246
249
250
249
241
223
160
132
133
91
84
86
76
72
52
71
153
195
255
248
248
251
251
251
252
252
251
251
253
251
242
229
201
178
192
213
231
239
242
240
239
227
217
210
220
230
237
241
246
247
247
251
251
252
251
251
251
251
251
251
251
251
164
158
153
162
173
205
244
247
247
248
241
243
245
246
246
219
224
224
200
168
147
140
142
144
179
181
190
195
164
141
129
121
113
132
146
143
154
176
162
188
227
239
242
247
245
243
247
250
225
172
154
158
144
72
95
62
72
73
72
53
130
117
105
250
255
254
251
251
251
251
250
249
249
250
244
234
225
195
190
200
218
233
237
237
235
233
230
208
208
216
220
235
246
246
247
249
250
250
252
251
251
251
251
251
251
251
251
159
157
141
158
176
188
226
238
242
244
236
239
241
245
237
190
199
216
193
183
167
149
127
151
171
141
168
186
171
158
129
132
114
138
150
138
148
172
186
203
217
229
241
242
238
233
229
243
149
107
149
166
123
109
88
64
59
51
62
71
116
84
93
156
226
252
251
251
251
250
249
248
246
241
233
220
210
188
190
205
216
228
231
232
230
229
225
215
218
220
228
237
243
248
249
249
250
250
252
251
251
251
251
251
251
251
251
147
158
162
173
168
176
198
195
188
209
228
225
219
232
233
201
197
193
191
175
150
140
121
139
147
111
144
179
187
164
153
139
120
130
154
140
144
154
183
207
220
232
244
232
217
216
217
217
115
102
159
183
158
80
54
63
60
47
41
77
106
78
92
77
125
239
248
251
249
243
240
241
239
223
212
202
196
177
172
188
210
218
220
225
229
227
222
225
227
232
238
244
247
248
249
249
251
251
251
251
251
251
251
251
251
251
251
140
159
149
143
157
169
171
170
167
173
184
193
198
219
218
187
206
208
180
165
130
92
112
125
122
107
130
154
160
139
138
124
119
138
141
131
136
157
163
191
217
216
227
226
221
221
197
169
107
134
159
147
104
83
51
60
50
44
43
94
94
96
89
83
114
232
245
247
242
234
223
203
224
207
197
199
181
169
168
175
200
210
218
229
233
231
234
237
239
239
241
246
248
249
249
250
251
251
251
251
251
251
251
251
251
251
251
149
152
138
139
139
146
155
155
163
174
180
183
186
202
192
180
204
189
150
146
109
89
97
92
88
85
97
142
137
136
135
129
118
120
126
132
141
160
160
172
191
201
219
217
224
218
176
150
87
153
150
138
130
108
62
55
47
48
38
102
116
86
86
82
128
235
241
241
232
223
208
194
215
201
195
187
175
165
170
190
213
217
223
235
240
237
241
244
246
248
248
248
249
250
250
251
251
251
251
251
251
251
251
251
251
251
251
157
141
137
139
134
147
158
147
153
161
170
182
185
191
185
184
181
146
95
98
78
84
81
78
83
75
80
117
146
142
137
130
112
117
117
123
134
145
144
135
160
193
218
210
203
167
172
126
116
161
145
122
150
118
53
58
48
37
43
121
116
72
81
78
88
209
236
230
224
210
182
178
195
198
192
169
166
158
167
220
244
242
242
242
245
244
244
246
247
251
251
250
250
251
251
252
251
251
251
251
251
251
251
251
251
251
251
146
134
131
138
141
140
148
134
131
132
158
171
177
192
178
174
180
128
82
83
75
82
72
66
80
83
80
90
120
135
148
137
106
114
121
104
100
119
121
106
134
195
203
196
193
173
167
92
160
143
140
122
147
82
45
55
56
41
43
117
85
54
74
87
87
142
218
212
218
199
169
153
164
203
190
154
163
161
188
231
236
247
250
249
249
249
248
249
249
251
251
251
251
251
251
251
251
251
251
251
251
251
251
251
251
251
251
145
151
153
147
133
123
134
129
147
137
143
163
165
177
166
170
172
117
90
100
77
79
65
59
66
75
73
82
90
110
128
133
126
117
118
119
126
126
119
113
144
209
160
199
174
171
128
112
140
147
137
166
129
75
45
47
56
30
46
130
82
57
65
81
70
109
174
192
205
195
189
171
158
184
172
166
170
174
192
223
226
244
249
251
251
251
249
250
251
251
251
251
251
251
251
251
251
251
251
251
251
251
251
251
251
251
251
171
173
161
164
149
143
124
141
172
148
154
178
175
151
174
156
139
104
113
105
90
81
60
60
65
80
64
72
69
81
89
102
127
106
125
135
122
150
153
136
160
162
155
217
169
173
94
127
140
145
169
173
140
64
73
55
59
33
69
101
77
71
59
68
69
100
151
155
184
202
204
191
171
170
170
166
159
187
190
208
231
236
248
252
252
252
250
250
252
251
251
251
251
251
251
251
251
251
251
251
251
251
251
251
251
251
251
220
198
182
186
195
133
92
132
195
198
178
154
148
146
146
169
102
96
108
102
80
72
73
65
64
89
65
89
71
83
73
99
108
123
125
128
125
162
149
155
169
172
193
182
183
141
81
124
155
141
161
146
172
121
79
49
56
42
103
91
74
61
65
53
60
74
151
139
151
181
198
201
167
166
184
170
149
172
182
203
214
209
243
248
250
252
251
251
253
253
252
251
250
250
251
252
251
251
251
251
251
251
251
251
251
251
251
218
212
187
194
193
95
92
98
134
169
143
129
131
136
132
127
89
88
94
84
72
71
68
62
59
76
84
91
79
81
112
97
81
97
93
122
134
133
131
144
182
183
181
190
176
108
93
134
161
113
104
164
147
125
91
51
45
45
113
86
99
74
69
55
55
41
118
146
142
151
184
187
164
173
169
158
139
165
184
201
203
180
213
242
246
250
249
251
251
251
251
250
250
252
252
253
251
251
251
251
251
251
251
251
251
251
251
193
185
192
200
158
83
84
69
52
132
109
119
119
123
141
105
123
83
86
86
61
69
66
52
93
92
88
73
81
65
92
96
73
77
69
94
117
107
105
156
194
159
187
175
133
81
140
156
130
94
88
107
85
129
92
58
34
60
111
88
78
73
65
60
56
48
81
167
153
153
148
169
171
175
180
154
146
163
185
192
188
180
178
204
222
235
251
249
250
250
251
250
249
247
249
248
251
251
251
251
252
251
251
252
251
251
251
179
185
199
193
90
88
62
66
55
87
109
105
114
132
113
120
111
70
78
87
70
69
59
45
130
72
80
70
71
65
79
89
72
60
69
81
99
106
87
172
164
155
179
171
115
120
148
151
117
64
69
103
94
111
79
57
37
50
110
104
92
72
56
57
59
59
75
182
174
152
147
166
189
188
195
176
149
156
188
180
147
146
155
166
185
225
240
251
249
246
238
235
227
228
214
234
252
252
250
250
242
246
250
244
247
246
251
184
127
98
91
83
87
47
61
65
60
123
111
128
123
91
127
100
73
76
85
79
77
52
62
102
108
94
82
56
86
66
83
68
58
73
75
83
91
71
130
151
153
176
156
113
135
122
127
96
60
55
82
63
90
76
67
34
52
113
122
125
62
59
57
59
60
66
163
178
138
142
172
199
183
199
202
173
188
192
178
147
143
144
139
181
234
237
245
239
218
203
201
194
195
184
185
224
249
250
237
214
223
224
227
229
245
247
79
60
83
95
81
67
41
56
74
55
153
135
158
110
105
100
81
63
70
84
77
83
89
104
72
54
67
99
58
69
73
85
86
62
69
67
65
74
74
126
134
167
180
153
161
127
140
141
134
89
54
61
54
83
88
66
20
82
128
90
92
79
59
57
59
60
66
106
154
142
180
205
206
189
190
183
171
184
160
145
128
130
128
126
172
222
229
228
218
181
159
158
160
160
155
156
182
219
227
217
201
178
181
188
210
233
244
94
76
95
108
88
80
61
66
53
50
128
157
133
100
88
81
75
60
61
90
72
99
121
94
66
57
65
61
56
85
78
101
114
92
64
64
71
70
109
113
130
172
119
143
164
116
169
132
155
142
64
52
58
94
62
54
66
106
91
72
79
80
64
60
58
56
66
73
111
173
190
222
190
159
151
152
151
159
141
131
133
129
135
135
158
175
190
201
185
158
134
137
143
140
135
153
184
199
203
200
196
200
195
195
216
235
237
76
96
114
81
69
61
115
127
68
75
134
147
122
103
60
57
74
58
65
74
77
61
86
103
69
62
65
52
43
69
73
79
84
87
63
64
68
67
106
85
98
96
96
125
119
140
162
134
190
90
59
55
71
76
57
52
155
104
91
92
81
72
62
57
61
59
69
67
83
152
176
173
168
141
123
135
133
131
137
154
152
150
160
142
135
104
101
131
116
152
113
104
128
135
131
140
165
165
178
195
210
218
218
213
227
240
243
69
117
112
71
57
68
103
81
57
86
177
145
128
96
34
53
73
47
61
73
90
85
65
86
69
55
63
64
56
44
52
58
82
73
67
63
68
64
90
104
100
45
88
173
98
189
132
183
120
69
62
56
62
51
54
116
208
137
78
86
72
75
70
70
68
59
65
57
68
126
167
142
130
122
142
133
136
124
124
131
171
134
152
135
87
67
78
86
73
71
61
67
75
112
142
145
146
154
161
174
199
216
211
208
214
239
243
92
147
119
69
73
66
67
54
56
99
184
136
137
108
27
50
56
41
54
80
95
106
77
63
79
78
60
53
53
56
56
37
104
88
67
58
107
104
120
123
74
62
104
155
180
184
192
188
50
69
60
58
59
55
47
155
148
111
113
88
75
77
65
54
64
53
70
58
57
73
198
160
113
115
129
135
146
153
156
177
119
95
84
65
62
72
78
72
69
76
73
72
66
56
90
157
154
143
159
164
174
185
148
123
99
160
205
99
109
154
90
68
61
63
44
34
116
163
158
138
100
37
36
40
41
56
102
88
78
64
68
64
74
58
44
62
52
57
25
61
92
70
67
122
112
156
120
122
102
188
213
189
189
197
112
61
68
49
52
62
50
58
164
124
143
102
64
71
69
68
50
59
59
63
64
54
68
114
142
106
101
117
119
130
125
125
121
77
62
64
69
71
69
73
77
62
77
63
67
78
75
60
140
173
121
135
129
139
134
127
141
127
126
114
127
139
142
89
62
66
50
30
31
113
159
147
136
86
45
42
40
32
91
114
78
71
55
48
59
71
66
60
57
51
57
37
54
67
80
76
137
108
149
122
144
160
215
181
214
166
180
77
57
64
48
59
54
29
89
144
126
117
64
63
71
71
64
51
61
60
67
68
50
60
79
95
88
83
80
82
83
86
88
73
62
71
60
68
70
68
72
79
66
78
69
71
75
62
66
64
118
126
134
128
134
105
141
138
110
128
140
119
113
147
108
60
68
48
28
45
123
140
132
114
72
45
45
52
85
101
84
105
98
60
58
77
52
70
58
57
44
62
69
62
73
76
72
71
48
138
156
145
223
218
159
162
151
188
89
61
57
58
68
49
22
78
169
172
55
59
57
64
66
56
60
63
50
70
72
47
36
47
74
77
80
75
82
81
85
86
82
76
66
69
67
60
75
69
80
73
78
76
75
75
78
63
57
58
63
62
99
118
114
111
118
123
113
121
134
133
136
132
62
58
43
25
63
131
97
92
98
54
32
45
94
76
105
106
109
111
73
55
63
52
56
49
39
48
56
69
67
63
61
71
51
135
147
95
179
229
133
171
134
171
231
115
60
57
57
62
55
37
97
153
129
66
61
56
61
60
52
68
50
57
66
59
33
31
45
52
93
98
87
84
78
83
79
70
77
76
72
67
65
55
63
67
78
82
72
63
68
59
66
65
67
74
70
64
60
78
95
103
104
101
121
125
107
131
170
60
62
29
21
58
129
107
108
90
40
33
79
112
68
86
77
65
102
82
62
55
43
49
45
28
64
54
53
56
68
52
67
56
169
146
151
216
159
121
173
155
153
106
105
118
100
67
62
47
31
88
158
92
92
82
52
55
59
50
64
55
57
63
39
37
31
45
52
64
63
79
80
83
76
69
76
65
65
65
62
63
71
66
69
82
73
58
69
69
73
74
64
64
73
67
73
67
60
78
92
111
100
127
153
139
89
108
51
56
19
20
66
141
113
114
81
39
62
101
74
54
81
66
71
88
89
53
33
46
43
39
31
70
65
68
53
56
74
45
61
168
175
203
189
166
119
148
123
108
86
95
178
103
64
56
41
52
101
125
85
97
89
58
47
57
46
51
50
53
49
38
40
52
45
54
71
69
79
91
85
77
78
72
61
73
63
67
64
60
55
66
71
62
72
83
74
84
89
70
61
71
63
57
65
59
49
68
90
131
174
139
117
70
96
57
34
16
13
111
121
112
70
65
46
78
57
50
57
75
83
70
79
98
118
54
49
45
36
46
58
67
68
56
55
86
112
81
191
205
226
208
105
160
128
144
113
77
62
136
101
69
64
31
45
101
121
93
93
88
71
51
45
52
46
46
17
88
77
41
61
56
57
74
80
67
69
89
88
76
68
71
78
75
60
54
56
54
54
76
69
73
90
102
88
69
64
69
85
79
70
71
63
71
57
60
95
110
115
123
97
81
48
43
20
11
111
134
76
64
58
67
57
53
59
50
113
104
102
96
143
162
86
34
38
35
30
51
69
61
61
57
55
83
147
231
228
239
149
124
108
154
172
128
67
83
67
103
81
69
28
46
149
124
106
93
93
73
55
44
49
45
40
41
115
102
63
67
59
53
67
73
64
70
66
89
125
113
91
82
77
51
58
57
59
78
86
106
125
110
107
90
92
85
65
74
73
91
71
68
81
73
69
74
75
91
84
107
102
44
46
24
34
117
151
79
51
52
53
63
50
47
59
81
92
110
145
156
145
112
71
35
29
30
58
61
54
54
64
30
38
107
186
222
183
145
124
156
112
179
204
180
95
73
92
83
57
54
63
165
117
121
86
86
74
59
46
42
39
36
71
92
90
68
78
73
54
62
68
71
57
99
78
99
109
87
102
64
53
70
60
77
76
71
84
94
104
84
78
76
79
84
93
95
88
77
71
71
61
68
73
73
80
83
76
73
47
45
22
68
134
108
68
43
49
48
57
53
31
49
98
108
108
143
134
98
67
68
43
15
38
56
52
49
46
71
41
45
162
221
161
163
203
175
181
116
187
163
144
92
111
100
99
47
64
71
99
77
84
83
89
76
58
43
37
37
54
147
99
66
74
84
81
62
61
68
65
46
46
72
90
93
113
131
85
71
70
73
78
69
56
54
60
88
84
84
74
73
80
84
76
75
73
64
67
58
81
79
70
88
102
95
88
43
34
20
95
147
106
81
64
42
45
51
53
46
50
121
118
104
105
87
94
82
72
59
43
58
60
60
45
55
63
73
103
219
179
158
187
181
190
131
120
133
150
128
78
89
91
83
34
94
85
76
84
71
78
80
77
53
34
35
34
81
144
125
65
82
79
63
67
60
60
63
37
44
69
80
82
135
147
130
93
76
83
81
69
74
68
55
75
79
131
108
90
89
95
78
72
74
65
89
85
76
76
85
95
107
99
98
86
81
63
107
149
90
101
80
48
53
57
55
42
51
173
121
109
83
72
91
82
72
48
58
49
65
57
39
52
68
67
142
183
172
154
175
173
177
140
151
151
138
122
88
66
90
53
27
70
119
114
123
98
81
76
77
62
27
32
34
64
91
107
55
57
74
65
71
70
66
57
33
78
125
86
61
136
147
135
95
95
100
96
99
93
75
89
124
129
145
126
86
102
110
98
75
53
68
88
71
58
62
79
83
98
116
52
64
90
97
166
125
106
92
66
45
67
63
60
68
145
120
114
87
76
57
99
111
85
56
52
51
62
58
47
57
71
67
139
202
173
157
203
150
134
164
161
168
154
121
117
58
73
51
30
45
134
129
71
129
86
71
80
59
44
17
22
38
61
101
45
52
63
76
62
67
65
39
50
72
71
85
124
124
136
133
116
209
183
125
120
111
118
147
161
185
186
132
101
136
121
104
100
97
61
57
67
64
61
66
125
68
65
50
34
61
109
112
110
108
91
45
50
81
70
58
85
110
103
96
106
90
56
122
120
87
59
33
55
47
58
63
101
77
111
184
190
174
201
183
142
150
172
114
141
142
172
147
52
71
46
86
118
130
130
69
133
68
77
77
60
36
24
34
44
69
111
45
45
62
71
62
61
71
80
85
136
151
155
141
127
114
126
128
130
200
243
179
120
137
179
203
221
182
147
146
121
122
146
120
76
79
51
58
87
77
103
81
100
99
56
43
40
103
151
122
136
54
54
60
75
77
60
89
90
143
138
116
78
62
94
87
78
53
36
54
53
50
84
70
48
93
165
173
195
190
151
131
126
131
132
129
154
206
215
88
68
52
53
95
115
123
98
100
78
72
77
39
22
45
45
49
61
101
82
48
75
69
76
58
132
216
182
188
141
146
158
149
136
111
87
161
172
172
181
133
167
143
182
186
164
139
115
94
109
136
146
144
117
75
64
105
88
97
73
84
97
78
55
57
138
141
180
113
41
63
72
62
70
75
71
97
166
144
89
94
95
67
86
87
53
39
52
59
48
59
59
31
81
163
196
189
176
142
134
120
115
149
127
139
181
206
109
109
59
59
68
110
111
99
75
81
73
49
15
69
74
54
75
68
64
102
82
82
82
106
60
131
142
135
123
129
157
148
137
130
106
75
153
193
135
139
130
152
204
195
168
160
147
126
132
150
116
149
122
128
118
111
78
100
114
65
65
95
65
33
52
108
140
206
46
54
63
76
42
37
60
84
148
143
111
94
125
97
20
87
111
57
30
50
49
40
99
63
17
153
190
179
153
135
120
128
120
113
162
127
122
134
176
134
175
84
94
62
81
116
95
79
66
65
51
50
136
165
120
173
176
137
98
104
98
94
82
44
88
154
164
167
195
154
125
115
148
150
135
137
138
126
149
118
106
119
132
141
149
191
168
140
148
134
148
172
147
179
161
150
119
180
58
85
109
44
18
51
161
187
138
53
70
58
59
76
68
90
106
118
102
103
137
106
110
61
97
94
61
45
46
41
65
102
45
33
180
193
150
127
108
113
111
122
121
122
102
148
161
151
153
169
117
97
98
77
98
97
76
80
110
149
156
152
189
179
188
149
140
91
115
109
81
75
45
95
122
153
180
196
134
123
121
133
164
132
112
160
151
132
89
89
75
58
106
176
190
99
117
129
128
166
166
164
145
98
130
130
224
73
104
105
72
32
28
117
132
77
59
62
54
61
82
66
86
92
107
132
130
106
97
91
84
88
73
58
46
46
48
81
79
29
87
191
164
142
155
139
113
121
144
178
89
106
154
160
136
127
103
68
113
85
103
99
126
81
73
175
179
165
141
148
138
168
160
116
146
107
105
109
130
143
135
150
174
198
146
114
132
137
145
141
130
123
122
148
133
122
133
126
104
114
179
181
106
123
113
88
115
114
120
115
137
124
120
238
72
79
65
53
44
35
70
80
72
82
84
80
66
59
57
70
102
125
112
102
108
104
87
82
62
81
61
36
36
53
89
61
26
157
203
183
138
112
105
114
145
120
129
134
143
154
151
142
117
97
85
91
74
101
100
140
92
140
253
187
177
127
131
147
166
147
124
152
129
104
121
128
142
103
102
204
160
139
139
137
120
119
139
163
109
136
117
94
110
129
127
133
125
172
188
132
114
114
124
178
84
100
119
151
126
74
218
54
57
47
49
70
38
53
72
85
97
80
68
76
73
79
84
96
86
99
81
79
95
89
75
69
68
71
38
31
46
63
52
128
180
189
144
74
94
91
113
121
126
139
160
122
131
164
119
119
90
93
86
73
74
104
124
88
219
218
197
201
121
133
140
142
118
154
145
108
160
129
166
121
70
74
183
140
130
157
147
125
124
134
136
64
135
112
116
110
115
108
163
142
180
225
176
135
154
132
205
106
101
106
124
130
158
252
89
89
68
115
71
101
83
82
89
105
95
66
62
43
73
77
68
70
81
79
76
93
100
86
51
58
58
27
34
52
49
73
190
219
158
101
93
178
169
134
113
103
166
136
137
129
136
128
102
74
90
83
66
81
93
106
74
231
208
165
193
204
143
147
123
170
172
146
175
189
129
135
154
58
123
159
152
123
104
114
135
157
131
103
59
147
89
72
109
87
142
117
93
134
238
248
229
185
128
213
205
181
150
88
176
198
229
147
102
73
89
123
128
70
92
104
95
99
90
86
83
77
100
79
74
110
100
92
118
109
98
59
48
45
11
68
56
43
86
191
222
134
76
106
75
111
136
117
120
116
133
125
147
150
110
73
65
76
70
80
123
67
72
181
218
202
168
166
167
112
130
139
165
158
156
175
134
133
123
64
93
135
125
102
108
107
113
100
80
95
89
70
115
82
56
102
122
142
103
127
120
147
246
251
255
224
215
219
157
127
78
84
174
204
92
100
104
81
141
151
141
134
85
49
99
102
95
93
92
101
91
87
99
101
100
106
75
78
47
52
27
46
73
53
35
115
235
190
157
151
174
104
120
121
123
111
128
128
122
139
111
108
82
104
82
82
99
108
43
75
170
177
152
165
165
147
156
136
117
156
152
166
188
182
129
138
66
110
161
167
103
88
70
82
122
108
105
71
110
138
82
31
113
109
149
129
106
116
110
196
217
255
254
252
212
135
120
97
79
121
171
55
89
97
120
139
164
135
101
69
50
112
99
88
85
91
120
91
94
103
104
113
124
81
49
41
37
19
68
145
74
58
160
250
142
135
127
159
104
126
123
119
95
90
83
101
115
104
115
64
82
88
97
118
101
85
144
178
172
144
146
130
169
137
99
89
128
181
193
177
163
108
135
84
97
129
139
163
157
114
94
110
145
133
75
172
134
83
46
114
115
143
113
137
133
113
107
123
246
251
252
246
232
221
190
142
156
181
64
93
77
123
148
140
121
109
124
95
86
97
113
115
110
109
102
114
116
128
124
112
85
33
32
30
20
86
122
74
113
199
223
120
88
78
98
114
116
136
111
103
69
84
131
105
99
81
91
89
90
71
116
92
116
164
146
141
115
96
154
175
120
79
42
109
161
177
159
107
78
127
98
100
87
134
141
130
129
113
102
104
126
85
172
130
50
39
100
110
121
104
172
158
132
108
152
193
247
249
247
250
241
220
239
244
216
94
117
77
64
99
85
128
136
114
136
93
77
102
122
120
120
99
89
85
95
125
115
76
21
41
34
36
79
105
74
122
212
154
77
75
73
105
91
112
123
105
89
94
114
164
137
156
134
151
123
120
148
98
80
135
157
116
96
82
132
161
178
86
90
108
138
131
97
139
106
117
97
97
105
79
95
141
146
140
138
155
159
111
85
153
75
55
37
118
144
156
123
141
145
124
92
162
154
171
250
253
247
252
244
214
206
237
44
89
73
68
71
87
120
84
116
122
95
78
98
112
139
106
91
89
104
112
113
90
76
37
36
43
50
72
101
63
184
185
120
84
78
88
109
64
109
130
106
104
100
136
156
81
150
118
83
84
100
111
92
99
93
117
80
93
123
156
168
155
101
113
148
137
161
107
123
120
118
77
141
145
98
60
115
157
154
121
136
169
140
167
159
112
82
37
122
183
134
124
132
136
84
130
152
190
247
252
250
249
248
230
252
231
210
30
82
126
78
67
86
107
72
133
107
90
79
142
116
113
101
97
84
67
95
95
74
69
42
40
41
69
77
61
45
199
163
93
76
77
100
115
100
144
88
92
106
133
117
121
103
126
110
117
142
131
90
43
72
71
57
74
146
178
163
188
175
90
161
163
146
157
94
120
115
65
108
135
96
74
69
127
182
179
162
152
156
144
193
179
171
134
54
99
173
96
133
143
136
87
160
180
235
251
248
241
252
249
248
252
255
255
40
86
123
154
90
102
89
100
149
110
87
85
151
152
107
70
68
58
72
83
93
93
73
47
35
73
101
48
110
188
208
160
114
83
88
95
97
138
142
91
100
105
118
126
117
150
115
88
119
125
75
49
45
72
69
89
145
159
174
148
137
86
111
169
206
187
177
138
138
197
205
175
138
87
58
79
232
253
248
249
241
225
215
244
208
168
145
93
156
165
129
140
130
138
162
229
252
248
249
235
224
222
239
230
231
199
187
56
71
106
88
34
102
126
102
120
126
92
82
168
133
151
106
59
36
51
82
96
94
86
43
31
101
60
122
244
247
214
167
127
86
105
115
110
128
124
113
103
111
107
117
137
169
139
105
105
88
62
57
62
54
81
86
147
207
167
142
114
109
93
107
151
190
194
172
186
245
255
246
232
223
172
181
253
250
252
251
252
253
251
248
249
238
229
221
243
240
225
190
158
209
250
253
255
254
252
224
192
184
167
148
160
124
115
93
59
75
23
14
109
126
76
107
139
115
95
151
125
134
114
94
56
21
68
91
95
73
45
122
99
113
237
246
244
196
185
121
80
104
103
151
137
103
114
116
118
131
135
166
102
146
117
88
62
58
71
86
74
77
121
175
174
177
179
133
161
146
180
184
177
206
167
178
224
210
227
250
250
252
255
250
250
252
251
248
246
247
251
246
251
248
248
246
246
252
249
255
224
174
221
143
124
135
167
180
154
136
139
175
119
174
94
80
43
10
45
135
91
107
111
113
104
128
128
114
134
120
62
47
25
70
101
102
68
18
107
72
93
222
243
224
181
152
110
99
112
91
150
145
107
109
123
129
141
153
134
86
107
99
54
69
62
74
82
52
108
180
157
189
176
152
98
179
120
174
192
193
192
131
72
159
158
144
176
214
236
251
250
250
250
249
250
233
213
221
245
251
253
249
239
236
235
214
164
131
119
176
143
150
131
165
158
139
128
103
103
139
148
80
73
73
47
125
125
66
109
115
135
155
173
144
102
53
102
81
62
41
57
92
101
48
50
100
55
82
149
235
224
190
137
98
112
117
115
131
125
115
102
101
151
143
150
79
80
110
101
59
70
71
75
70
41
132
179
192
146
122
117
142
154
137
188
177
170
142
118
113
162
159
167
159
161
177
211
233
252
249
247
255
222
199
184
196
243
244
217
168
190
182
125
141
158
147
158
165
165
134
142
130
135
144
134
140
168
179
69
112
145
87
127
110
107
128
115
136
162
167
143
104
41
93
87
106
91
44
70
80
20
84
92
56
64
134
242
201
142
103
93
140
136
133
129
141
86
91
133
148
124
147
89
57
91
81
79
72
86
82
52
65
182
149
174
146
106
111
138
119
141
143
196
191
176
146
124
148
167
163
122
153
161
166
192
209
221
234
140
238
226
187
209
206
172
187
186
172
158
108
157
172
127
180
136
164
124
119
147
155
166
153
150
177
99
71
77
91
98
135
136
107
143
141
149
132
171
160
72
43
69
92
103
95
50
75
71
35
151
88
69
92
219
185
152
129
94
97
140
119
117
111
108
103
197
171
166
147
142
76
60
121
103
93
60
83
90
49
171
195
191
164
108
111
158
127
181
142
187
197
220
204
185
170
182
122
140
183
183
182
178
209
187
245
230
233
227
199
205
178
166
191
182
179
134
140
143
160
162
170
169
103
134
161
153
166
160
151
141
131
125
120
99
160
146
107
93
100
90
116
122
124
117
156
161
56
61
45
87
97
67
49
74
104
148
124
91
130
250
255
168
137
123
97
117
114
116
129
125
107
163
100
120
165
95
166
137
96
74
66
91
102
95
76
113
178
204
158
156
131
132
110
82
214
231
210
202
211
206
136
225
237
249
195
180
187
186
176
210
241
242
251
206
234
198
196
195
181
157
145
132
160
129
164
139
157
148
107
130
178
166
157
119
102
148
112
172
158
170
76
103
103
73
42
73
123
99
119
116
105
164
115
46
50
62
82
97
57
112
213
243
189
152
230
255
251
255
173
93
94
92
104
98
122
104
103
106
98
98
153
88
118
135
140
126
123
121
86
121
101
158
213
191
190
135
90
180
162
148
174
219
201
201
200
128
121
151
230
201
216
232
191
223
185
193
177
179
202
214
198
188
201
202
167
189
126
141
158
160
143
143
138
134
144
144
165
130
158
154
175
155
171
170
166
172
133
94
116
92
55
35
96
130
91
133
115
109
157
129
73
69
127
117
77
40
142
253
231
222
250
254
249
254
237
139
96
102
101
111
111
91
111
87
148
77
121
123
108
154
120
116
127
133
114
95
129
173
182
160
204
163
111
122
111
173
211
217
197
164
161
138
171
176
216
199
173
136
197
227
221
169
182
211
160
151
191
175
173
162
149
170
127
108
145
162
158
161
147
132
141
142
172
140
123
161
137
113
130
133
149
172
137
128
71
89
72
48
12
123
122
102
125
143
140
154
139
127
116
141
130
107
188
242
248
251
253
242
251
252
255
227
98
84
97
110
154
130
99
126
154
117
63
103
104
114
131
94
107
99
92
101
157
172
141
119
128
205
185
109
133
182
209
212
223
182
167
155
163
210
155
183
151
169
132
139
225
201
189
240
234
221
210
239
171
186
154
144
122
126
118
136
141
155
153
157
154
132
172
160
131
156
181
144
118
113
130
175
167
170
159
88
74
82
46
85
111
107
117
144
144
139
150
135
157
175
138
143
229
250
247
250
239
218
228
254
249
252
251
249
240
160
169
166
112
107
147
103
89
171
102
94
46
158
83
115
70
111
193
195
178
137
158
151
197
125
56
131
226
225
223
214
237
179
168
152
204
226
174
166
192
175
165
157
168
148
133
151
250
219
189
174
142
89
130
134
143
172
173
174
169
149
158
164
156
155
150
161
161
107
85
144
161
148
176
156
180
146
107
89
99
59
137
140
142
149
147
117
147
144
172
153
159
151
207
251
246
246
213
207
241
254
250
251
251
250
253
250
250
227
141
106
150
129
114
77
111
111
71
42
166
99
121
170
206
196
195
165
148
126
172
180
116
97
199
235
213
216
220
192
142
132
205
236
195
223
171
177
189
205
106
165
159
147
190
193
154
153
153
174
176
157
154
152
147
154
176
137
137
152
167
141
160
151
160
190
160
148
160
155
112
172
182
155
168
78
69
84
76
150
81
67
126
137
150
140
149
194
187
212
232
251
226
219
203
225
211
208
246
252
249
253
246
254
250
245
203
135
131
194
140
103
70
137
141
49
105
150
152
192
213
194
197
186
183
171
193
206
213
237
243
211
198
191
231
202
158
143
179
214
170
184
236
132
159
218
215
202
227
194
146
225
239
220
186
159
185
185
149
192
145
136
173
195
168
140
148
131
175
160
163
174
158
163
174
116
149
178
157
160
167
175
112
179
216
209
220
173
131
132
159
147
86
150
230
248
207
197
197
198
167
159
187
174
212
247
251
252
251
251
251
251
251
242
239
219
145
117
130
131
158
113
81
175
187
205
176
193
189
186
188
202
209
195
208
219
241
221
190
236
190
241
159
147
153
175
176
156
176
203
207
208
217
213
209
235
229
169
223
184
176
179
181
209
220
188
147
158
197
174
199
191
140
130
179
201
159
160
168
178
156
159
155
150
159
167
173
172
152
153
232
255
250
249
252
239
215
174
142
194
240
208
159
127
163
167
161
157
159
162
163
171
235
252
250
252
251
251
251
251
250
250
249
221
229
241
229
190
172
198
210
203
188
189
188
176
187
194
222
224
196
108
249
237
186
206
222
176
176
156
146
145
155
142
175
220
176
240
234
216
189
208
214
153
155
238
215
223
208
218
210
198
128
139
219
204
195
214
208
202
152
153
166
163
160
181
176
144
169
159
205
186
182
171
129
151
253
251
247
249
252
251
254
253
249
252
223
184
154
159
158
171
151
154
157
162
156
177
155
226
254
248
251
251
251
251
247
251
249
242
240
193
196
192
200
222
205
187
191
191
186
176
181
167
188
201
175
154
179
229
224
218
191
156
184
206
168
150
166
164
140
193
235
188
149
193
214
222
209
170
128
188
204
202
212
210
209
227
155
106
191
204
173
154
167
220
188
121
147
154
176
163
160
173
172
175
155
163
180
182
151
182
164
228
250
247
247
250
252
247
235
217
184
142
160
147
158
188
150
151
153
160
162
159
195
233
243
248
248
250
249
251
251
247
250
245
198
188
180
189
204
203
192
184
185
182
165
169
164
192
195
179
164
219
196
220
198
220
231
241
188
195
229
237
163
164
183
200
177
183
201
214
204
196
174
192
161
162
216
244
217
226
216
150
115
126
136
171
182
151
190
186
221
143
164
167
166
143
152
157
170
159
176
178
169
162
163
164
109
154
180
243
241
251
253
227
188
151
154
152
152
149
157
159
166
148
162
155
161
156
158
182
234
230
248
234
234
252
252
251
251
252
239
231
182
190
194
192
183
185
180
179
168
172
199
162
193
208
151
149
177
170
194
195
174
160
194
153
183
187
176
175
187
192
218
177
159
164
178
151
184
212
208
170
191
233
210
203
148
56
84
188
172
159
134
75
44
49
50
131
136
161
150
166
159
169
167
162
160
168
146
152
163
164
159
174
132
214
205
246
246
201
162
157
147
150
156
149
163
150
150
153
172
166
148
137
153
149
161
157
230
216
219
216
241
248
252
243
240
243
193
181
187
175
182
165
170
170
169
164
208
188
218
191
230
200
182
155
191
218
239
201
120
102
133
192
198
186
209
212
192
188
162
140
179
138
143
161
211
155
46
137
241
236
185
160
72
90
187
81
103
131
81
44
65
102
143
149
142
92
164
150
155
153
171
150
167
101
160
144
144
173
146
147
216
240
183
150
142
148
148
117
132
145
155
131
142
144
149
145
145
154
142
150
136
166
157
193
211
223
181
152
158
191
204
199
162
170
170
173
151
151
161
172
173
161
188
202
159
197
125
207
221
169
183
232
247
199
128
121
119
140
174
231
155
203
204
203
155
205
200
220
192
130
124
183
131
64
158
213
180
238
213
211
219
109
52
62
98
63
136
145
144
146
153
134
136
151
154
181
159
141
154
146
139
138
167
140
153
156
144
